<svg id="visual" viewBox="0 0 900 600" width="900" height="600" xmlns="http://www.w3.org/2000/svg" xmlns:xlink="http://www.w3.org/1999/xlink" version="1.1"><rect x="0" y="0" width="900" height="600" fill="#0D3F7C"></rect><path d="M0 240L21.5 227.7C43 215.3 86 190.7 128.8 194C171.7 197.3 214.3 228.7 257.2 271.7C300 314.7 343 369.3 385.8 348.2C428.7 327 471.3 230 514.2 221.7C557 213.3 600 293.7 642.8 354.3C685.7 415 728.3 456 771.2 431.2C814 406.3 857 315.7 878.5 270.3L900 225L900 601L878.5 601C857 601 814 601 771.2 601C728.3 601 685.7 601 642.8 601C600 601 557 601 514.2 601C471.3 601 428.7 601 385.8 601C343 601 300 601 257.2 601C214.3 601 171.7 601 128.8 601C86 601 43 601 21.5 601L0 601Z" fill="#FF8BA0" stroke-linecap="round" stroke-linejoin="miter"></path></svg>